<?xml version="1.0" encoding="utf-8"?>
<!-- Generator: Adobe Illustrator 23.0.0, SVG Export Plug-In . SVG Version: 6.00 Build 0)  -->
<svg version="1.1" id="Capa_1" xmlns="http://www.w3.org/2000/svg" xmlns:xlink="http://www.w3.org/1999/xlink" x="0px" y="0px"
	 viewBox="0 0 35 35" style="enable-background:new 0 0 35 35;" xml:space="preserve">
<style type="text/css">
	.st0{fill:#FFFFFF;}
</style>
<circle cx="17.5" cy="17.5" r="17.5"/>
<path class="st0" d="M25.5,18.7c-2.3,2.3-4.6,4.6-6.9,6.9c-0.4,0.4-0.8,0.6-1.4,0.4c-0.8-0.3-1.1-1.3-0.6-1.9
	c0.1-0.1,0.2-0.2,0.2-0.3c1.6-1.6,3.2-3.2,4.8-4.8c0.1-0.1,0.1-0.1,0.2-0.2v-0.1c-0.1,0-0.2,0-0.3,0c-6,0-5.2,0-11.2,0
	c-0.4,0-0.8-0.1-1.1-0.4C8.9,17.9,8.8,17.5,9,17c0.2-0.4,0.6-0.7,1-0.7c0.1,0,0.2,0,0.3,0c6,0,5.1,0,11.1,0c0.1,0,0.2,0,0.3,0
	c-0.1-0.1-0.2-0.2-0.2-0.2c-1.6-1.6-3.3-3.3-4.9-4.9c-0.5-0.5-0.6-1-0.3-1.5c0.3-0.7,1.2-0.9,1.8-0.4c0.1,0.1,0.2,0.2,0.3,0.3
	c2.3,2.3,4.5,4.5,6.8,6.8c0.3,0.3,0.6,0.6,0.7,1c0.2,0,0.2,0.1,0.2,0.3C26,18.1,25.7,18.4,25.5,18.7z"/>
</svg>
