<?xml version="1.0" encoding="utf-8"?>
<!-- Generator: Adobe Illustrator 23.0.0, SVG Export Plug-In . SVG Version: 6.00 Build 0)  -->
<svg version="1.1" id="Capa_1" xmlns="http://www.w3.org/2000/svg" xmlns:xlink="http://www.w3.org/1999/xlink" x="0px" y="0px"
	 viewBox="0 0 35 35" style="enable-background:new 0 0 35 35;" xml:space="preserve">
<style type="text/css">
	.st0{fill:#606060;}
	.st1{fill:#555555;}
</style>
<path class="st0" d="M17.5,0C27.1,0,35,7.9,35,17.5S27.1,35,17.5,35S0,27.1,0,17.5S7.9,0,17.5,0z M17.5,33C26,33,33,26,33,17.5
	S26,2,17.5,2S2,9,2,17.5S9,33,17.5,33z"/>
<path class="st1" d="M8.9,17.3c0.1-0.4,0.4-0.7,0.6-1c2.3-2.3,4.6-4.6,6.9-6.9C16.8,9,17.2,8.8,17.8,9c0.8,0.3,1.1,1.3,0.6,1.9
	c-0.1,0.1-0.2,0.2-0.2,0.3c-1.6,1.6-3.2,3.2-4.8,4.8c-0.1,0.1-0.1,0.1-0.2,0.2v0.1c0.1,0,0.2,0,0.3,0c6,0,5.2,0,11.2,0
	c0.4,0,0.8,0.1,1.1,0.4c0.3,0.4,0.4,0.8,0.2,1.3c-0.2,0.4-0.6,0.7-1,0.7c-0.1,0-0.2,0-0.3,0c-6,0-5.1,0-11.1,0c-0.1,0-0.2,0-0.3,0
	c0.1,0.1,0.2,0.2,0.2,0.2c1.6,1.6,3.3,3.3,4.9,4.9c0.5,0.5,0.6,1,0.3,1.5c-0.3,0.7-1.2,0.9-1.8,0.4c-0.1-0.1-0.2-0.2-0.3-0.3
	c-2.3-2.3-4.5-4.5-6.8-6.8c-0.3-0.3-0.6-0.6-0.7-1C8.9,17.6,8.9,17.5,8.9,17.3z"/>
</svg>
